<?xml version="1.0" encoding="utf-8" standalone="no"?>
<!DOCTYPE svg PUBLIC "-//W3C//DTD SVG 1.1//EN"
  "http://www.w3.org/Graphics/SVG/1.1/DTD/svg11.dtd">
<!-- Created with matplotlib (http://matplotlib.org/) -->
<svg height="180pt" version="1.1" viewBox="0 0 252 180" width="252pt" xmlns="http://www.w3.org/2000/svg" xmlns:xlink="http://www.w3.org/1999/xlink">
 <defs>
  <style type="text/css">
*{stroke-linecap:butt;stroke-linejoin:round;}
  </style>
 </defs>
 <g id="figure_1">
  <g id="patch_1">
   <path d="M 0 180 
L 252 180 
L 252 0 
L 0 0 
z
" style="fill:#ffffff;"/>
  </g>
  <g id="axes_1">
   <g id="patch_2">
    <path d="M 38.768 63.58 
L 237.24 63.58 
L 237.24 9 
L 38.768 9 
z
" style="fill:#ffffff;"/>
   </g>
   <g id="matplotlib.axis_1">
    <g id="xtick_1">
     <g id="line2d_1">
      <defs>
       <path d="M 0 0 
L 0 2 
" id="mf26e266872" style="stroke:#000000;"/>
      </defs>
      <g>
       <use style="stroke:#000000;" x="38.768" xlink:href="#mf26e266872" y="63.58"/>
      </g>
     </g>
     <g id="text_1">
      <!-- 500 -->
      <defs>
       <path d="M 43.296875 65 
L 12.203125 65 
L 8 33.796875 
C 10.40625 34.09375 13.296875 34.40625 17.09375 34.40625 
C 30 34.40625 35.703125 28.5 35.703125 20.09375 
C 35.796875 11.40625 28.59375 6 20.40625 6 
C 14.40625 6 9.09375 8 6.40625 9.59375 
L 4.203125 2.90625 
C 7.40625 0.90625 13.296875 -1.09375 20.40625 -1.09375 
C 34.5 -1.09375 44.59375 8.40625 44.59375 21.09375 
C 44.59375 29.203125 40.40625 34.90625 35.296875 37.703125 
C 31.296875 40.203125 26.40625 41.203125 21.296875 41.203125 
C 18.90625 41.203125 17.5 41.09375 16 40.90625 
L 18.5 57.59375 
L 43.296875 57.59375 
z
" id="MyriadPro-Regular-35"/>
       <path d="M 26.296875 66.09375 
C 13.09375 66.09375 3.59375 54.203125 3.59375 32.296875 
C 3.796875 10.796875 12.5 -1.09375 25.203125 -1.09375 
C 39.5 -1.09375 47.796875 11.09375 47.796875 33.203125 
C 47.796875 53.90625 39.90625 66.09375 26.296875 66.09375 
z
M 25.703125 59.296875 
C 34.90625 59.296875 38.90625 48.796875 38.90625 32.796875 
C 38.90625 16.203125 34.59375 5.703125 25.703125 5.703125 
C 17.703125 5.703125 12.5 15.296875 12.5 32.203125 
C 12.5 49.90625 18.09375 59.296875 25.703125 59.296875 
z
" id="MyriadPro-Regular-30"/>
      </defs>
      <g transform="translate(33.381828 74.05)scale(0.07 -0.07)">
       <use xlink:href="#MyriadPro-Regular-35"/>
       <use x="51.299988" xlink:href="#MyriadPro-Regular-30"/>
       <use x="102.599976" xlink:href="#MyriadPro-Regular-30"/>
      </g>
     </g>
    </g>
    <g id="xtick_2">
     <g id="line2d_2">
      <g>
       <use style="stroke:#000000;" x="78.4624" xlink:href="#mf26e266872" y="63.58"/>
      </g>
     </g>
     <g id="text_2">
      <!-- 600 -->
      <defs>
       <path d="M 41.59375 66 
C 40 66 37.796875 65.90625 35.203125 65.5 
C 27 64.5 19.796875 61.203125 14.40625 55.90625 
C 7.90625 49.5 3.40625 39.40625 3.40625 26.59375 
C 3.40625 9.703125 12.5 -1.09375 26.296875 -1.09375 
C 39.90625 -1.09375 48 9.90625 48 21.90625 
C 48 34.5 39.90625 42.90625 28.40625 42.90625 
C 21.203125 42.90625 15.703125 39.5 12.59375 35.296875 
L 12.40625 35.296875 
C 13.90625 46.09375 21.09375 56.09375 35 58.296875 
C 37.5 58.703125 39.796875 58.90625 41.59375 58.796875 
z
M 26.5 5.703125 
C 17.203125 5.703125 12.203125 13.703125 12.09375 24.40625 
C 12.09375 26 12.5 27.203125 13 28.203125 
C 15.40625 33 20.40625 36.203125 25.703125 36.203125 
C 33.796875 36.203125 39.09375 30.59375 39.09375 21.296875 
C 39.09375 12 34 5.703125 26.5 5.703125 
z
" id="MyriadPro-Regular-36"/>
      </defs>
      <g transform="translate(73.076228 74.05)scale(0.07 -0.07)">
       <use xlink:href="#MyriadPro-Regular-36"/>
       <use x="51.299988" xlink:href="#MyriadPro-Regular-30"/>
       <use x="102.599976" xlink:href="#MyriadPro-Regular-30"/>
      </g>
     </g>
    </g>
    <g id="xtick_3">
     <g id="line2d_3">
      <g>
       <use style="stroke:#000000;" x="118.1568" xlink:href="#mf26e266872" y="63.58"/>
      </g>
     </g>
     <g id="text_3">
      <!-- 700 -->
      <defs>
       <path d="M 5.703125 65 
L 5.703125 57.703125 
L 37.5 57.703125 
L 37.5 57.5 
L 9.296875 0 
L 18.40625 0 
L 46.703125 59.203125 
L 46.703125 65 
z
" id="MyriadPro-Regular-37"/>
      </defs>
      <g transform="translate(112.770628 74.05)scale(0.07 -0.07)">
       <use xlink:href="#MyriadPro-Regular-37"/>
       <use x="51.299988" xlink:href="#MyriadPro-Regular-30"/>
       <use x="102.599976" xlink:href="#MyriadPro-Regular-30"/>
      </g>
     </g>
    </g>
    <g id="xtick_4">
     <g id="line2d_4">
      <g>
       <use style="stroke:#000000;" x="157.8512" xlink:href="#mf26e266872" y="63.58"/>
      </g>
     </g>
     <g id="text_4">
      <!-- 800 -->
      <defs>
       <path d="M 16.59375 33.90625 
C 8.59375 30.5 3.703125 24.59375 3.703125 16.40625 
C 3.703125 6.90625 11.90625 -1.09375 25.5 -1.09375 
C 37.90625 -1.09375 47.59375 6.40625 47.59375 17.796875 
C 47.59375 25.59375 42.59375 31.40625 34.5 34.59375 
L 34.5 34.90625 
C 42.5 38.59375 45.296875 44.59375 45.296875 50.09375 
C 45.296875 58.296875 38.90625 66.09375 26.296875 66.09375 
C 14.796875 66.09375 6.09375 59.09375 6.09375 48.796875 
C 6.09375 43.203125 9.203125 37.59375 16.5 34.203125 
z
M 25.703125 5.296875 
C 17.40625 5.296875 12.40625 11.09375 12.703125 17.59375 
C 12.703125 23.796875 16.796875 28.90625 24.40625 31.09375 
C 33.203125 28.59375 38.703125 24.703125 38.703125 16.90625 
C 38.703125 10.203125 33.59375 5.296875 25.703125 5.296875 
z
M 25.796875 59.796875 
C 33.703125 59.796875 36.796875 54.40625 36.796875 49.203125 
C 36.796875 43.296875 32.5 39.296875 26.90625 37.40625 
C 19.40625 39.40625 14.40625 42.90625 14.5 49.40625 
C 14.5 55 18.5 59.796875 25.796875 59.796875 
z
" id="MyriadPro-Regular-38"/>
      </defs>
      <g transform="translate(152.465028 74.05)scale(0.07 -0.07)">
       <use xlink:href="#MyriadPro-Regular-38"/>
       <use x="51.299988" xlink:href="#MyriadPro-Regular-30"/>
       <use x="102.599976" xlink:href="#MyriadPro-Regular-30"/>
      </g>
     </g>
    </g>
    <g id="xtick_5">
     <g id="line2d_5">
      <g>
       <use style="stroke:#000000;" x="197.5456" xlink:href="#mf26e266872" y="63.58"/>
      </g>
     </g>
     <g id="text_5">
      <!-- 900 -->
      <defs>
       <path d="M 9.59375 -1 
C 11.703125 -1.09375 14.5 -1 17.703125 -0.5 
C 24.703125 0.296875 31.59375 3.296875 36.59375 8.203125 
C 43 14.40625 47.796875 24.40625 47.796875 38.59375 
C 47.796875 55.40625 39.59375 66.09375 26.296875 66.09375 
C 13 66.09375 4.09375 55.296875 4.09375 43 
C 4.09375 31.90625 11.59375 23.09375 23.203125 23.09375 
C 29.796875 23.09375 35 25.59375 38.59375 30 
L 38.90625 30 
C 37.703125 22.40625 34.59375 16.703125 30.296875 12.796875 
C 26.59375 9.203125 21.796875 7.203125 16.703125 6.5 
C 13.703125 6.203125 11.5 6 9.59375 6.203125 
z
M 25.5 59.40625 
C 34.796875 59.40625 38.90625 50.90625 38.90625 39.796875 
C 38.90625 38.296875 38.59375 37.40625 38.09375 36.5 
C 35.796875 32.59375 31.203125 29.703125 25.296875 29.703125 
C 17.703125 29.703125 12.796875 35.40625 12.796875 43.5 
C 12.796875 52.796875 18.09375 59.40625 25.5 59.40625 
z
" id="MyriadPro-Regular-39"/>
      </defs>
      <g transform="translate(192.159428 74.05)scale(0.07 -0.07)">
       <use xlink:href="#MyriadPro-Regular-39"/>
       <use x="51.299988" xlink:href="#MyriadPro-Regular-30"/>
       <use x="102.599976" xlink:href="#MyriadPro-Regular-30"/>
      </g>
     </g>
    </g>
    <g id="xtick_6">
     <g id="line2d_6">
      <g>
       <use style="stroke:#000000;" x="237.24" xlink:href="#mf26e266872" y="63.58"/>
      </g>
     </g>
     <g id="text_6">
      <!-- 1000 -->
      <defs>
       <path d="M 23.59375 0 
L 32.09375 0 
L 32.09375 65 
L 24.59375 65 
L 10.40625 57.40625 
L 12.09375 50.703125 
L 23.40625 56.796875 
L 23.59375 56.796875 
z
" id="MyriadPro-Regular-31"/>
      </defs>
      <g transform="translate(230.058437 74.05)scale(0.07 -0.07)">
       <use xlink:href="#MyriadPro-Regular-31"/>
       <use x="51.299988" xlink:href="#MyriadPro-Regular-30"/>
       <use x="102.599976" xlink:href="#MyriadPro-Regular-30"/>
       <use x="153.899963" xlink:href="#MyriadPro-Regular-30"/>
      </g>
     </g>
    </g>
    <g id="text_7">
     <!-- Time -->
     <defs>
      <path d="M 20.40625 0 
L 29.203125 0 
L 29.203125 60 
L 49.796875 60 
L 49.796875 67.40625 
L -0.09375 67.40625 
L -0.09375 60 
L 20.40625 60 
z
" id="MyriadPro-Regular-54"/>
      <path d="M 16.09375 0 
L 16.09375 48.40625 
L 7.296875 48.40625 
L 7.296875 0 
z
M 11.703125 67.5 
C 8.40625 67.5 6.203125 65 6.203125 62 
C 6.203125 59 8.296875 56.59375 11.5 56.59375 
C 15 56.59375 17.09375 59 17.09375 62 
C 17.09375 65.09375 14.90625 67.5 11.703125 67.5 
z
" id="MyriadPro-Regular-69"/>
      <path d="M 7.296875 0 
L 15.90625 0 
L 15.90625 29.09375 
C 15.90625 30.59375 16.09375 32.203125 16.59375 33.40625 
C 18 37.796875 22.09375 42.203125 27.5 42.203125 
C 34.203125 42.203125 37.59375 36.703125 37.59375 29 
L 37.59375 0 
L 46.203125 0 
L 46.203125 29.90625 
C 46.203125 31.5 46.5 33 46.90625 34.296875 
C 48.5 38.5 52.296875 42.203125 57.40625 42.203125 
C 64.40625 42.203125 67.90625 36.703125 67.90625 27.296875 
L 67.90625 0 
L 76.5 0 
L 76.5 28.40625 
C 76.5 45.203125 67 49.40625 60.5 49.40625 
C 55.90625 49.40625 52.796875 48.203125 49.90625 46 
C 47.90625 44.5 45.90625 42.5 44.40625 39.703125 
L 44.203125 39.703125 
C 42.09375 45.40625 37.09375 49.40625 30.59375 49.40625 
C 22.5 49.40625 18 45.09375 15.296875 40.5 
L 15 40.5 
L 14.59375 48.40625 
L 6.90625 48.40625 
C 7.09375 44.40625 7.296875 40.40625 7.296875 35.296875 
z
" id="MyriadPro-Regular-6d"/>
      <path d="M 46.203125 22.59375 
C 46.40625 23.59375 46.5 24.90625 46.5 26.703125 
C 46.5 35.59375 42.40625 49.40625 26.5 49.40625 
C 12.40625 49.40625 3.796875 38 3.796875 23.40625 
C 3.796875 8.796875 12.703125 -1.09375 27.59375 -1.09375 
C 35.296875 -1.09375 40.703125 0.59375 43.796875 2 
L 42.203125 8.296875 
C 39 6.90625 35.09375 5.796875 28.796875 5.796875 
C 19.90625 5.796875 12.40625 10.703125 12.203125 22.59375 
z
M 12.296875 28.90625 
C 13 35 16.796875 43.09375 25.796875 43.09375 
C 35.703125 43.09375 38.09375 34.40625 38 28.90625 
z
" id="MyriadPro-Regular-65"/>
     </defs>
     <g transform="translate(130.772672 84.405781)scale(0.07 -0.07)">
      <use xlink:href="#MyriadPro-Regular-54"/>
      <use x="49.699997" xlink:href="#MyriadPro-Regular-69"/>
      <use x="73.099991" xlink:href="#MyriadPro-Regular-6d"/>
      <use x="156.499985" xlink:href="#MyriadPro-Regular-65"/>
     </g>
    </g>
   </g>
   <g id="matplotlib.axis_2">
    <g id="ytick_1">
     <g id="line2d_7">
      <defs>
       <path d="M 0 0 
L -2 0 
" id="mdffe849aab" style="stroke:#000000;"/>
      </defs>
      <g>
       <use style="stroke:#000000;" x="38.768" xlink:href="#mdffe849aab" y="54.483333"/>
      </g>
     </g>
     <g id="text_8">
      <!-- −2 -->
      <defs>
       <path d="M 4 29.703125 
L 4 23.703125 
L 55.59375 23.703125 
L 55.59375 29.703125 
z
" id="MyriadPro-Regular-2212"/>
       <path d="M 46 0 
L 46 7.296875 
L 16.90625 7.296875 
L 16.90625 7.5 
L 22 12.296875 
C 35.703125 25.5 44.40625 35.203125 44.40625 47.203125 
C 44.40625 56.5 38.5 66.09375 24.5 66.09375 
C 17.09375 66.09375 10.59375 63.203125 6.203125 59.5 
L 9 53.296875 
C 12 55.796875 16.90625 58.796875 22.796875 58.796875 
C 32.5 58.796875 35.59375 52.703125 35.59375 46.09375 
C 35.59375 36.296875 28 27.90625 11.40625 12.09375 
L 4.5 5.40625 
L 4.5 0 
z
" id="MyriadPro-Regular-32"/>
      </defs>
      <g transform="translate(25.505656 56.968333)scale(0.07 -0.07)">
       <use xlink:href="#MyriadPro-Regular-2212"/>
       <use x="59.599991" xlink:href="#MyriadPro-Regular-32"/>
      </g>
     </g>
    </g>
    <g id="ytick_2">
     <g id="line2d_8">
      <g>
       <use style="stroke:#000000;" x="38.768" xlink:href="#mdffe849aab" y="36.29"/>
      </g>
     </g>
     <g id="text_9">
      <!-- 0 -->
      <g transform="translate(29.677219 38.775)scale(0.07 -0.07)">
       <use xlink:href="#MyriadPro-Regular-30"/>
      </g>
     </g>
    </g>
    <g id="ytick_3">
     <g id="line2d_9">
      <g>
       <use style="stroke:#000000;" x="38.768" xlink:href="#mdffe849aab" y="18.096667"/>
      </g>
     </g>
     <g id="text_10">
      <!-- 2 -->
      <g transform="translate(29.677219 20.581667)scale(0.07 -0.07)">
       <use xlink:href="#MyriadPro-Regular-32"/>
      </g>
     </g>
    </g>
    <g id="text_11">
     <!-- Normalised liquid  -->
     <defs>
      <path d="M 15.796875 0 
L 15.796875 28.796875 
C 15.796875 40 15.703125 48.09375 15.203125 56.59375 
L 15.5 56.703125 
C 18.796875 49.40625 23.296875 41.703125 28 34.203125 
L 49.40625 0 
L 58.203125 0 
L 58.203125 67.40625 
L 50 67.40625 
L 50 39.203125 
C 50 28.703125 50.203125 20.5 51 11.5 
L 50.703125 11.40625 
C 47.59375 18.296875 43.59375 25.40625 38.703125 33.296875 
L 17.203125 67.40625 
L 7.59375 67.40625 
L 7.59375 0 
z
" id="MyriadPro-Regular-4e"/>
      <path d="M 27.796875 49.40625 
C 14.5 49.40625 3.796875 39.90625 3.796875 23.796875 
C 3.796875 8.5 14 -1.09375 27 -1.09375 
C 38.59375 -1.09375 51.09375 6.703125 51.09375 24.59375 
C 51.09375 39.296875 41.703125 49.40625 27.796875 49.40625 
z
M 27.59375 42.796875 
C 38 42.796875 42.09375 32.5 42.09375 24.296875 
C 42.09375 13.40625 35.796875 5.5 27.40625 5.5 
C 18.796875 5.5 12.796875 13.5 12.796875 24.09375 
C 12.796875 33.203125 17.296875 42.796875 27.59375 42.796875 
z
" id="MyriadPro-Regular-6f"/>
      <path d="M 7.296875 0 
L 16.09375 0 
L 16.09375 25.796875 
C 16.09375 27.203125 16.203125 28.703125 16.40625 29.90625 
C 17.59375 36.5 22 41.09375 28.203125 41.09375 
C 29.40625 41.09375 30.296875 41.09375 31.203125 40.90625 
L 31.203125 49.203125 
C 30.40625 49.296875 29.703125 49.40625 28.796875 49.40625 
C 22.90625 49.40625 17.5 45.296875 15.296875 38.796875 
L 15 38.796875 
L 14.59375 48.40625 
L 6.90625 48.40625 
C 7.203125 43.90625 7.296875 39 7.296875 33.296875 
z
" id="MyriadPro-Regular-72"/>
      <path d="M 41.296875 29.703125 
C 41.296875 39.296875 37.703125 49.40625 22.90625 49.40625 
C 16.796875 49.40625 10.90625 47.703125 6.90625 45.203125 
L 8.90625 39.296875 
C 12.296875 41.59375 17 42.90625 21.59375 42.90625 
C 31.5 43 32.59375 35.703125 32.59375 31.796875 
L 32.59375 30.796875 
C 13.90625 30.90625 3.5 24.5 3.5 12.796875 
C 3.5 5.796875 8.5 -1.09375 18.296875 -1.09375 
C 25.203125 -1.09375 30.40625 2.296875 33.09375 6.09375 
L 33.40625 6.09375 
L 34.09375 0 
L 42 0 
C 41.5 3.296875 41.296875 7.40625 41.296875 11.59375 
z
M 32.796875 16.296875 
C 32.796875 15.5 32.703125 14.5 32.40625 13.5 
C 31 9.40625 26.90625 5.40625 20.5 5.40625 
C 16.09375 5.40625 12.296875 8 12.296875 13.796875 
C 12.296875 23.203125 23.203125 24.90625 32.796875 24.703125 
z
" id="MyriadPro-Regular-61"/>
      <path d="M 7.296875 0 
L 16.09375 0 
L 16.09375 71 
L 7.296875 71 
z
" id="MyriadPro-Regular-6c"/>
      <path d="M 4 2.296875 
C 7.40625 0.296875 12.296875 -1.09375 17.59375 -1.09375 
C 28.90625 -1.09375 35.59375 4.90625 35.59375 13.5 
C 35.59375 20.703125 31.203125 24.90625 22.90625 28 
C 16.59375 30.5 13.796875 32.296875 13.796875 36.296875 
C 13.796875 39.90625 16.59375 42.90625 21.796875 42.90625 
C 26.296875 42.90625 29.796875 41.203125 31.703125 40 
L 33.796875 46.40625 
C 31.203125 48.09375 26.90625 49.40625 22 49.40625 
C 11.703125 49.40625 5.296875 43 5.296875 35.203125 
C 5.296875 29.40625 9.40625 24.703125 18.203125 21.5 
C 24.59375 19.09375 27.09375 16.90625 27.09375 12.703125 
C 27.09375 8.59375 24.09375 5.5 17.796875 5.5 
C 13.40625 5.5 8.796875 7.296875 6.09375 8.90625 
z
" id="MyriadPro-Regular-73"/>
      <path d="M 40.296875 71 
L 40.296875 42.09375 
L 40.09375 42.09375 
C 37.90625 45.90625 33 49.40625 25.5 49.40625 
C 13.796875 49.40625 3.703125 39.59375 3.796875 23.5 
C 3.796875 8.796875 12.90625 -1.09375 24.59375 -1.09375 
C 32.5 -1.09375 38.296875 3 40.90625 8.40625 
L 41.203125 8.40625 
L 41.59375 0 
L 49.40625 0 
C 49.203125 3.296875 49 8.203125 49 12.5 
L 49 71 
z
M 40.296875 20.296875 
C 40.296875 18.90625 40.203125 17.703125 39.90625 16.5 
C 38.296875 10 32.90625 6 27 6 
C 17.59375 6 12.703125 14.09375 12.703125 23.90625 
C 12.703125 34.5 18.09375 42.5 27.203125 42.5 
C 33.796875 42.5 38.59375 37.90625 39.90625 32.40625 
C 40.203125 31.296875 40.296875 29.796875 40.296875 28.703125 
z
" id="MyriadPro-Regular-64"/>
      <path id="MyriadPro-Regular-20"/>
      <path d="M 40.296875 -19.796875 
L 49 -19.796875 
L 49 35.09375 
C 49 40.09375 49.203125 44.40625 49.40625 48.40625 
L 41.09375 48.40625 
L 40.796875 41.09375 
L 40.59375 41.09375 
C 38.203125 45.703125 33.203125 49.40625 25.703125 49.40625 
C 15.5 49.40625 3.796875 41.5 3.796875 23.296875 
C 3.796875 8.59375 13 -1.09375 24.296875 -1.09375 
C 32.09375 -1.09375 37.40625 2.703125 40.09375 7.40625 
L 40.296875 7.40625 
z
M 40.296875 19.703125 
C 40.296875 18.40625 40 16.703125 39.59375 15.40625 
C 37.59375 9.40625 32.703125 5.90625 27 5.90625 
C 17.296875 5.90625 12.703125 14.203125 12.703125 23.90625 
C 12.703125 34.703125 18.203125 42.40625 27.296875 42.40625 
C 33.90625 42.40625 38.5 37.796875 39.90625 32.40625 
C 40.203125 31.296875 40.296875 30 40.296875 28.796875 
z
" id="MyriadPro-Regular-71"/>
      <path d="M 47.796875 48.40625 
L 39 48.40625 
L 39 18.796875 
C 39 17.09375 38.703125 15.5 38.203125 14.296875 
C 36.59375 10.296875 32.5 6.203125 26.59375 6.203125 
C 18.703125 6.203125 15.796875 12.5 15.796875 21.703125 
L 15.796875 48.40625 
L 7 48.40625 
L 7 20.09375 
C 7 3.203125 16.09375 -1.09375 23.703125 -1.09375 
C 32.296875 -1.09375 37.5 4 39.703125 7.90625 
L 39.90625 7.90625 
L 40.40625 0 
L 48.203125 0 
C 47.90625 3.796875 47.796875 8.203125 47.796875 13.296875 
z
" id="MyriadPro-Regular-75"/>
     </defs>
     <g transform="translate(12.770094 62.845156)rotate(-90)scale(0.07 -0.07)">
      <use xlink:href="#MyriadPro-Regular-4e"/>
      <use x="65.799988" xlink:href="#MyriadPro-Regular-6f"/>
      <use x="120.699982" xlink:href="#MyriadPro-Regular-72"/>
      <use x="153.399979" xlink:href="#MyriadPro-Regular-6d"/>
      <use x="236.799973" xlink:href="#MyriadPro-Regular-61"/>
      <use x="284.999969" xlink:href="#MyriadPro-Regular-6c"/>
      <use x="308.59996" xlink:href="#MyriadPro-Regular-69"/>
      <use x="331.999954" xlink:href="#MyriadPro-Regular-73"/>
      <use x="371.599945" xlink:href="#MyriadPro-Regular-65"/>
      <use x="421.699936" xlink:href="#MyriadPro-Regular-64"/>
      <use x="478.09993" xlink:href="#MyriadPro-Regular-20"/>
      <use x="499.299927" xlink:href="#MyriadPro-Regular-6c"/>
      <use x="522.899918" xlink:href="#MyriadPro-Regular-69"/>
      <use x="546.299911" xlink:href="#MyriadPro-Regular-71"/>
      <use x="602.599899" xlink:href="#MyriadPro-Regular-75"/>
      <use x="657.69989" xlink:href="#MyriadPro-Regular-69"/>
      <use x="681.099884" xlink:href="#MyriadPro-Regular-64"/>
      <use x="737.499878" xlink:href="#MyriadPro-Regular-20"/>
     </g>
     <!--  displacement -->
     <defs>
      <path d="M 7.296875 -19.796875 
L 16 -19.796875 
L 16 6.5 
L 16.203125 6.5 
C 19.09375 1.703125 24.703125 -1.09375 31.09375 -1.09375 
C 42.5 -1.09375 53.203125 7.5 53.203125 24.90625 
C 53.203125 39.5 44.40625 49.40625 32.59375 49.40625 
C 24.703125 49.40625 18.90625 46 15.40625 40.09375 
L 15.203125 40.09375 
L 14.703125 48.40625 
L 6.90625 48.40625 
C 7.09375 43.796875 7.296875 38.796875 7.296875 32.59375 
z
M 16 28.09375 
C 16 29.203125 16.296875 30.5 16.59375 31.59375 
C 18.203125 38.203125 23.90625 42.40625 29.90625 42.40625 
C 39.203125 42.40625 44.296875 34.09375 44.296875 24.5 
C 44.296875 13.40625 38.90625 5.796875 29.59375 5.796875 
C 23.296875 5.796875 18 10 16.40625 16.09375 
C 16.09375 17.203125 16 18.40625 16 19.703125 
z
" id="MyriadPro-Regular-70"/>
      <path d="M 40.296875 8.296875 
C 37.796875 7.203125 34.5 6 29.5 6 
C 19.90625 6 12.703125 12.90625 12.703125 24.09375 
C 12.703125 34.09375 18.703125 42.40625 29.796875 42.40625 
C 34.59375 42.40625 37.90625 41.203125 40 40.09375 
L 42 46.796875 
C 39.59375 48.09375 35 49.40625 29.796875 49.40625 
C 14 49.40625 3.796875 38.5 3.796875 23.59375 
C 3.796875 8.796875 13.296875 -1.09375 27.90625 -1.09375 
C 34.40625 -1.09375 39.5 0.59375 41.796875 1.703125 
z
" id="MyriadPro-Regular-63"/>
      <path d="M 7.296875 0 
L 16.09375 0 
L 16.09375 29.09375 
C 16.09375 30.59375 16.296875 32.09375 16.703125 33.203125 
C 18.296875 38.09375 22.796875 42.203125 28.5 42.203125 
C 36.796875 42.203125 39.703125 35.703125 39.703125 27.90625 
L 39.703125 0 
L 48.5 0 
L 48.5 28.796875 
C 48.5 45.40625 38.09375 49.40625 31.40625 49.40625 
C 23.40625 49.40625 17.796875 44.90625 15.40625 40.40625 
L 15.203125 40.40625 
L 14.703125 48.40625 
L 6.90625 48.40625 
C 7.203125 44.40625 7.296875 40.40625 7.296875 35.296875 
z
" id="MyriadPro-Regular-6e"/>
      <path d="M 9.296875 57.40625 
L 9.296875 48.40625 
L 1.796875 48.40625 
L 1.796875 41.703125 
L 9.296875 41.703125 
L 9.296875 15.296875 
C 9.296875 9.59375 10.296875 5.296875 12.703125 2.59375 
C 14.796875 0.296875 18.09375 -1.09375 22.203125 -1.09375 
C 25.59375 -1.09375 28.296875 -0.5 30 0.09375 
L 29.59375 6.796875 
C 28.296875 6.40625 26.90625 6.203125 24.5 6.203125 
C 19.59375 6.203125 17.90625 9.59375 17.90625 15.59375 
L 17.90625 41.703125 
L 30.5 41.703125 
L 30.5 48.40625 
L 17.90625 48.40625 
L 17.90625 60 
z
" id="MyriadPro-Regular-74"/>
     </defs>
     <g transform="translate(20.119875 56.810391)rotate(-90)scale(0.07 -0.07)">
      <use xlink:href="#MyriadPro-Regular-20"/>
      <use x="21.199997" xlink:href="#MyriadPro-Regular-64"/>
      <use x="77.599991" xlink:href="#MyriadPro-Regular-69"/>
      <use x="100.999985" xlink:href="#MyriadPro-Regular-73"/>
      <use x="140.599976" xlink:href="#MyriadPro-Regular-70"/>
      <use x="197.499969" xlink:href="#MyriadPro-Regular-6c"/>
      <use x="221.09996" xlink:href="#MyriadPro-Regular-61"/>
      <use x="269.299957" xlink:href="#MyriadPro-Regular-63"/>
      <use x="314.099945" xlink:href="#MyriadPro-Regular-65"/>
      <use x="364.199936" xlink:href="#MyriadPro-Regular-6d"/>
      <use x="447.59993" xlink:href="#MyriadPro-Regular-65"/>
      <use x="497.699921" xlink:href="#MyriadPro-Regular-6e"/>
      <use x="553.199905" xlink:href="#MyriadPro-Regular-74"/>
     </g>
    </g>
   </g>
   <g id="line2d_10">
    <path clip-path="url(#p829b2ac032)" d="M 38.371056 37.070628 
L 38.768 37.070628 
L 39.164944 29.533531 
L 39.561888 29.533531 
L 39.958832 52.144821 
L 40.355776 29.533531 
L 40.75272 59.681918 
L 41.149664 29.533531 
L 41.546608 29.533531 
L 41.943552 59.681918 
L 42.340496 52.144821 
L 42.73744 29.533531 
L 44.325216 29.533531 
L 44.72216 21.996434 
L 45.119104 29.533531 
L 45.516048 29.533531 
L 45.912992 21.996434 
L 46.309936 29.533531 
L 46.70688 29.533531 
L 47.103824 21.996434 
L 47.500768 29.533531 
L 48.294656 29.533531 
L 48.6916 21.996434 
L 49.088544 29.533531 
L 50.67632 29.533531 
L 51.073264 21.996434 
L 51.470208 21.996434 
L 51.867152 29.533531 
L 52.66104 29.533531 
L 53.057984 21.996434 
L 53.454928 29.533531 
L 53.851872 21.996434 
L 54.248816 29.533531 
L 60.996864 29.533531 
L 61.393808 37.070628 
L 61.790752 37.070628 
L 62.187696 29.533531 
L 62.58464 29.533531 
L 62.981584 37.070628 
L 63.378528 29.533531 
L 64.56936 29.533531 
L 64.966304 37.070628 
L 65.363248 37.070628 
L 65.760192 29.533531 
L 79.653232 29.533531 
L 80.050176 21.996434 
L 80.44712 29.533531 
L 91.164608 29.533531 
L 91.561552 21.996434 
L 91.958496 29.533531 
L 95.134048 29.533531 
L 95.530992 21.996434 
L 95.927936 29.533531 
L 96.32488 21.996434 
L 96.721824 29.533531 
L 97.118768 29.533531 
L 97.515712 21.996434 
L 97.912656 29.533531 
L 101.882096 29.533531 
L 102.27904 21.996434 
L 102.675984 29.533531 
L 112.996528 29.533531 
L 113.393472 21.996434 
L 113.790416 29.533531 
L 114.18736 21.996434 
L 114.584304 29.533531 
L 114.981248 29.533531 
L 115.378192 52.144821 
L 115.775136 52.144821 
L 116.17208 29.533531 
L 117.362912 29.533531 
L 117.759856 44.607725 
L 118.1568 89.830305 
L 118.553744 52.144821 
L 118.950688 37.070628 
L 119.347632 52.144821 
L 119.744576 59.681918 
L 120.14152 29.533531 
L 120.538464 37.070628 
L 120.935408 37.070628 
L 121.332352 29.533531 
L 123.317072 29.533531 
L 123.714016 37.070628 
L 124.11096 74.756112 
L 124.507904 37.070628 
L 125.301792 52.144821 
L 125.698736 37.070628 
L 126.09568 29.533531 
L 133.637616 29.533531 
L 134.03456 21.996434 
L 134.431504 29.533531 
L 147.9276 29.533531 
L 148.324544 37.070628 
L 148.721488 29.533531 
L 163.408416 29.533531 
L 163.80536 37.070628 
L 164.202304 37.070628 
L 164.599248 29.533531 
L 164.996192 37.070628 
L 165.393136 29.533531 
L 178.492288 29.533531 
L 178.889232 21.996434 
L 179.286176 29.533531 
L 188.812832 29.533531 
L 189.209776 21.996434 
L 189.60672 29.533531 
L 200.324208 29.533531 
L 200.721152 37.070628 
L 201.118096 37.070628 
L 201.51504 52.144821 
L 201.911984 74.756112 
L 202.308928 37.070628 
L 202.705872 37.070628 
L 203.102816 82.293208 
L 203.896704 29.533531 
L 204.293648 52.144821 
L 204.690592 29.533531 
L 208.263088 29.533531 
L 208.660032 21.996434 
L 209.056976 29.533531 
L 221.759184 29.533531 
L 222.156128 21.996434 
L 222.553072 29.533531 
L 224.934736 29.533531 
L 225.33168 21.996434 
L 225.728624 29.533531 
L 237.636944 29.533531 
L 237.636944 29.533531 
" style="fill:none;stroke:#1f77b4;stroke-linecap:square;stroke-width:1.5;"/>
   </g>
   <g id="patch_3">
    <path d="M 38.768 63.58 
L 38.768 9 
" style="fill:none;stroke:#000000;stroke-linecap:square;stroke-linejoin:miter;"/>
   </g>
   <g id="patch_4">
    <path d="M 237.24 63.58 
L 237.24 9 
" style="fill:none;stroke:#000000;stroke-linecap:square;stroke-linejoin:miter;"/>
   </g>
   <g id="patch_5">
    <path d="M 38.768 63.58 
L 237.24 63.58 
" style="fill:none;stroke:#000000;stroke-linecap:square;stroke-linejoin:miter;"/>
   </g>
   <g id="patch_6">
    <path d="M 38.768 9 
L 237.24 9 
" style="fill:none;stroke:#000000;stroke-linecap:square;stroke-linejoin:miter;"/>
   </g>
  </g>
  <g id="axes_2">
   <g id="patch_7">
    <path d="M 38.768 149.98 
L 237.24 149.98 
L 237.24 95.4 
L 38.768 95.4 
z
" style="fill:#ffffff;"/>
   </g>
   <g id="matplotlib.axis_3">
    <g id="xtick_7">
     <g id="line2d_11">
      <g>
       <use style="stroke:#000000;" x="38.768" xlink:href="#mf26e266872" y="149.98"/>
      </g>
     </g>
     <g id="text_12">
      <!-- 500 -->
      <g transform="translate(33.381828 160.45)scale(0.07 -0.07)">
       <use xlink:href="#MyriadPro-Regular-35"/>
       <use x="51.299988" xlink:href="#MyriadPro-Regular-30"/>
       <use x="102.599976" xlink:href="#MyriadPro-Regular-30"/>
      </g>
     </g>
    </g>
    <g id="xtick_8">
     <g id="line2d_12">
      <g>
       <use style="stroke:#000000;" x="78.4624" xlink:href="#mf26e266872" y="149.98"/>
      </g>
     </g>
     <g id="text_13">
      <!-- 600 -->
      <g transform="translate(73.076228 160.45)scale(0.07 -0.07)">
       <use xlink:href="#MyriadPro-Regular-36"/>
       <use x="51.299988" xlink:href="#MyriadPro-Regular-30"/>
       <use x="102.599976" xlink:href="#MyriadPro-Regular-30"/>
      </g>
     </g>
    </g>
    <g id="xtick_9">
     <g id="line2d_13">
      <g>
       <use style="stroke:#000000;" x="118.1568" xlink:href="#mf26e266872" y="149.98"/>
      </g>
     </g>
     <g id="text_14">
      <!-- 700 -->
      <g transform="translate(112.770628 160.45)scale(0.07 -0.07)">
       <use xlink:href="#MyriadPro-Regular-37"/>
       <use x="51.299988" xlink:href="#MyriadPro-Regular-30"/>
       <use x="102.599976" xlink:href="#MyriadPro-Regular-30"/>
      </g>
     </g>
    </g>
    <g id="xtick_10">
     <g id="line2d_14">
      <g>
       <use style="stroke:#000000;" x="157.8512" xlink:href="#mf26e266872" y="149.98"/>
      </g>
     </g>
     <g id="text_15">
      <!-- 800 -->
      <g transform="translate(152.465028 160.45)scale(0.07 -0.07)">
       <use xlink:href="#MyriadPro-Regular-38"/>
       <use x="51.299988" xlink:href="#MyriadPro-Regular-30"/>
       <use x="102.599976" xlink:href="#MyriadPro-Regular-30"/>
      </g>
     </g>
    </g>
    <g id="xtick_11">
     <g id="line2d_15">
      <g>
       <use style="stroke:#000000;" x="197.5456" xlink:href="#mf26e266872" y="149.98"/>
      </g>
     </g>
     <g id="text_16">
      <!-- 900 -->
      <g transform="translate(192.159428 160.45)scale(0.07 -0.07)">
       <use xlink:href="#MyriadPro-Regular-39"/>
       <use x="51.299988" xlink:href="#MyriadPro-Regular-30"/>
       <use x="102.599976" xlink:href="#MyriadPro-Regular-30"/>
      </g>
     </g>
    </g>
    <g id="xtick_12">
     <g id="line2d_16">
      <g>
       <use style="stroke:#000000;" x="237.24" xlink:href="#mf26e266872" y="149.98"/>
      </g>
     </g>
     <g id="text_17">
      <!-- 1000 -->
      <g transform="translate(230.058437 160.45)scale(0.07 -0.07)">
       <use xlink:href="#MyriadPro-Regular-31"/>
       <use x="51.299988" xlink:href="#MyriadPro-Regular-30"/>
       <use x="102.599976" xlink:href="#MyriadPro-Regular-30"/>
       <use x="153.899963" xlink:href="#MyriadPro-Regular-30"/>
      </g>
     </g>
    </g>
    <g id="text_18">
     <!-- Time -->
     <g transform="translate(130.772672 170.805781)scale(0.07 -0.07)">
      <use xlink:href="#MyriadPro-Regular-54"/>
      <use x="49.699997" xlink:href="#MyriadPro-Regular-69"/>
      <use x="73.099991" xlink:href="#MyriadPro-Regular-6d"/>
      <use x="156.499985" xlink:href="#MyriadPro-Regular-65"/>
     </g>
    </g>
   </g>
   <g id="matplotlib.axis_4">
    <g id="ytick_4">
     <g id="line2d_17">
      <g>
       <use style="stroke:#000000;" x="38.768" xlink:href="#mdffe849aab" y="140.883333"/>
      </g>
     </g>
     <g id="text_19">
      <!-- −2 -->
      <g transform="translate(25.505656 143.368333)scale(0.07 -0.07)">
       <use xlink:href="#MyriadPro-Regular-2212"/>
       <use x="59.599991" xlink:href="#MyriadPro-Regular-32"/>
      </g>
     </g>
    </g>
    <g id="ytick_5">
     <g id="line2d_18">
      <g>
       <use style="stroke:#000000;" x="38.768" xlink:href="#mdffe849aab" y="122.69"/>
      </g>
     </g>
     <g id="text_20">
      <!-- 0 -->
      <g transform="translate(29.677219 125.175)scale(0.07 -0.07)">
       <use xlink:href="#MyriadPro-Regular-30"/>
      </g>
     </g>
    </g>
    <g id="ytick_6">
     <g id="line2d_19">
      <g>
       <use style="stroke:#000000;" x="38.768" xlink:href="#mdffe849aab" y="104.496667"/>
      </g>
     </g>
     <g id="text_21">
      <!-- 2 -->
      <g transform="translate(29.677219 106.981667)scale(0.07 -0.07)">
       <use xlink:href="#MyriadPro-Regular-32"/>
      </g>
     </g>
    </g>
    <g id="text_22">
     <!-- Normalised horizontal  -->
     <defs>
      <path d="M 7.296875 0 
L 16.09375 0 
L 16.09375 29.203125 
C 16.09375 30.796875 16.203125 32.09375 16.703125 33.40625 
C 18.40625 38.09375 22.796875 42.09375 28.5 42.09375 
C 36.796875 42.09375 39.703125 35.59375 39.703125 27.796875 
L 39.703125 0 
L 48.5 0 
L 48.5 28.796875 
C 48.5 45.40625 38.09375 49.40625 31.59375 49.40625 
C 28.296875 49.40625 25.203125 48.5 22.59375 47 
C 19.90625 45.5 17.703125 43.203125 16.296875 40.703125 
L 16.09375 40.703125 
L 16.09375 71 
L 7.296875 71 
z
" id="MyriadPro-Regular-68"/>
      <path d="M 1.796875 0 
L 41 0 
L 41 7 
L 12.796875 7 
L 12.796875 7.203125 
C 15 9.59375 16.90625 12.09375 19 14.796875 
L 40.59375 42.90625 
L 40.59375 48.40625 
L 3.796875 48.40625 
L 3.796875 41.40625 
L 30 41.40625 
L 30 41.203125 
C 27.796875 38.59375 25.796875 36.296875 23.59375 33.59375 
L 1.796875 5.09375 
z
" id="MyriadPro-Regular-7a"/>
     </defs>
     <g transform="translate(12.770094 155.769375)rotate(-90)scale(0.07 -0.07)">
      <use xlink:href="#MyriadPro-Regular-4e"/>
      <use x="65.799988" xlink:href="#MyriadPro-Regular-6f"/>
      <use x="120.699982" xlink:href="#MyriadPro-Regular-72"/>
      <use x="153.399979" xlink:href="#MyriadPro-Regular-6d"/>
      <use x="236.799973" xlink:href="#MyriadPro-Regular-61"/>
      <use x="284.999969" xlink:href="#MyriadPro-Regular-6c"/>
      <use x="308.59996" xlink:href="#MyriadPro-Regular-69"/>
      <use x="331.999954" xlink:href="#MyriadPro-Regular-73"/>
      <use x="371.599945" xlink:href="#MyriadPro-Regular-65"/>
      <use x="421.699936" xlink:href="#MyriadPro-Regular-64"/>
      <use x="478.09993" xlink:href="#MyriadPro-Regular-20"/>
      <use x="499.299927" xlink:href="#MyriadPro-Regular-68"/>
      <use x="554.799911" xlink:href="#MyriadPro-Regular-6f"/>
      <use x="609.699905" xlink:href="#MyriadPro-Regular-72"/>
      <use x="642.399902" xlink:href="#MyriadPro-Regular-69"/>
      <use x="665.799896" xlink:href="#MyriadPro-Regular-7a"/>
      <use x="708.599884" xlink:href="#MyriadPro-Regular-6f"/>
      <use x="763.499878" xlink:href="#MyriadPro-Regular-6e"/>
      <use x="818.999863" xlink:href="#MyriadPro-Regular-74"/>
      <use x="852.099854" xlink:href="#MyriadPro-Regular-61"/>
      <use x="900.29985" xlink:href="#MyriadPro-Regular-6c"/>
      <use x="923.899841" xlink:href="#MyriadPro-Regular-20"/>
     </g>
     <!--  position -->
     <g transform="translate(20.119875 135.392266)rotate(-90)scale(0.07 -0.07)">
      <use xlink:href="#MyriadPro-Regular-20"/>
      <use x="21.199997" xlink:href="#MyriadPro-Regular-70"/>
      <use x="78.099991" xlink:href="#MyriadPro-Regular-6f"/>
      <use x="132.999985" xlink:href="#MyriadPro-Regular-73"/>
      <use x="172.599976" xlink:href="#MyriadPro-Regular-69"/>
      <use x="195.999969" xlink:href="#MyriadPro-Regular-74"/>
      <use x="229.09996" xlink:href="#MyriadPro-Regular-69"/>
      <use x="252.499954" xlink:href="#MyriadPro-Regular-6f"/>
      <use x="307.399948" xlink:href="#MyriadPro-Regular-6e"/>
     </g>
    </g>
   </g>
   <g id="line2d_20">
    <path clip-path="url(#p951ce00cd9)" d="M 38.371056 114.327411 
L 44.325216 114.327411 
L 44.72216 117.809405 
L 45.119104 114.327411 
L 45.516048 114.327411 
L 46.309936 121.291399 
L 46.70688 114.327411 
L 50.67632 114.327411 
L 51.073264 117.809405 
L 51.470208 114.327411 
L 51.867152 114.327411 
L 52.66104 121.291399 
L 53.057984 114.327411 
L 53.454928 117.809405 
L 53.851872 124.773393 
L 54.248816 114.327411 
L 54.64576 131.737381 
L 55.042704 121.291399 
L 55.439648 114.327411 
L 55.836592 121.291399 
L 56.233536 131.737381 
L 56.63048 114.327411 
L 57.027424 138.701369 
L 57.424368 117.809405 
L 57.821312 117.809405 
L 58.218256 131.737381 
L 58.6152 114.327411 
L 59.012144 121.291399 
L 59.806032 114.327411 
L 60.202976 114.327411 
L 60.59992 121.291399 
L 60.996864 114.327411 
L 61.393808 117.809405 
L 61.790752 117.809405 
L 62.187696 114.327411 
L 63.775472 114.327411 
L 64.172416 117.809405 
L 64.56936 114.327411 
L 76.080736 114.327411 
L 76.47768 117.809405 
L 76.874624 114.327411 
L 77.668512 121.291399 
L 78.065456 114.327411 
L 78.859344 121.291399 
L 79.256288 114.327411 
L 79.653232 114.327411 
L 80.050176 121.291399 
L 80.44712 121.291399 
L 80.844064 114.327411 
L 81.241008 117.809405 
L 81.637952 114.327411 
L 90.37072 114.327411 
L 91.164608 121.291399 
L 91.561552 114.327411 
L 91.958496 117.809405 
L 92.35544 114.327411 
L 93.943216 114.327411 
L 94.34016 117.809405 
L 94.737104 117.809405 
L 95.134048 114.327411 
L 95.530992 121.291399 
L 95.927936 114.327411 
L 96.32488 124.773393 
L 96.721824 121.291399 
L 97.118768 114.327411 
L 97.515712 124.773393 
L 97.912656 114.327411 
L 98.3096 117.809405 
L 98.706544 117.809405 
L 99.103488 114.327411 
L 99.500432 117.809405 
L 99.897376 114.327411 
L 105.851536 114.327411 
L 106.24848 121.291399 
L 107.042368 114.327411 
L 107.439312 124.773393 
L 107.836256 114.327411 
L 108.2332 124.773393 
L 108.630144 114.327411 
L 109.027088 114.327411 
L 109.424032 128.255387 
L 109.820976 131.737381 
L 110.21792 114.327411 
L 110.614864 124.773393 
L 111.011808 114.327411 
L 111.408752 114.327411 
L 112.20264 121.291399 
L 112.599584 114.327411 
L 112.996528 114.327411 
L 113.393472 117.809405 
L 113.790416 114.327411 
L 126.09568 114.327411 
L 126.492624 117.809405 
L 126.889568 114.327411 
L 127.286512 114.327411 
L 127.683456 121.291399 
L 128.0804 114.327411 
L 128.477344 121.291399 
L 128.874288 121.291399 
L 129.271232 114.327411 
L 129.668176 114.327411 
L 130.06512 121.291399 
L 130.462064 114.327411 
L 130.859008 124.773393 
L 131.255952 114.327411 
L 131.652896 121.291399 
L 132.04984 124.773393 
L 132.446784 121.291399 
L 132.843728 114.327411 
L 133.240672 124.773393 
L 133.637616 114.327411 
L 134.03456 121.291399 
L 134.431504 114.327411 
L 134.828448 114.327411 
L 135.225392 117.809405 
L 135.622336 117.809405 
L 136.01928 114.327411 
L 141.576496 114.327411 
L 141.97344 117.809405 
L 142.370384 114.327411 
L 142.767328 114.327411 
L 143.164272 117.809405 
L 143.561216 114.327411 
L 143.95816 117.809405 
L 144.355104 114.327411 
L 149.118432 114.327411 
L 149.515376 117.809405 
L 149.91232 114.327411 
L 150.309264 121.291399 
L 151.103152 114.327411 
L 151.500096 121.291399 
L 151.89704 121.291399 
L 152.293984 114.327411 
L 152.690928 117.809405 
L 153.087872 114.327411 
L 153.484816 117.809405 
L 153.88176 114.327411 
L 164.599248 114.327411 
L 164.996192 117.809405 
L 165.393136 114.327411 
L 165.79008 114.327411 
L 166.187024 117.809405 
L 166.583968 117.809405 
L 166.980912 114.327411 
L 167.377856 121.291399 
L 167.7748 117.809405 
L 168.171744 117.809405 
L 168.568688 124.773393 
L 168.965632 114.327411 
L 169.362576 121.291399 
L 169.75952 121.291399 
L 170.156464 114.327411 
L 170.553408 117.809405 
L 170.950352 114.327411 
L 171.347296 114.327411 
L 171.74424 117.809405 
L 172.141184 114.327411 
L 172.538128 117.809405 
L 172.935072 114.327411 
L 173.332016 114.327411 
L 173.72896 117.809405 
L 174.125904 114.327411 
L 174.522848 114.327411 
L 174.919792 117.809405 
L 175.316736 114.327411 
L 176.507568 114.327411 
L 176.904512 117.809405 
L 177.301456 114.327411 
L 177.6984 114.327411 
L 178.095344 117.809405 
L 178.492288 114.327411 
L 178.889232 114.327411 
L 179.286176 117.809405 
L 179.68312 114.327411 
L 180.080064 117.809405 
L 180.477008 117.809405 
L 180.873952 114.327411 
L 181.270896 121.291399 
L 181.66784 121.291399 
L 182.064784 114.327411 
L 182.461728 121.291399 
L 182.858672 121.291399 
L 183.255616 114.327411 
L 183.65256 131.737381 
L 184.049504 114.327411 
L 184.843392 138.701369 
L 185.240336 114.327411 
L 185.63728 117.809405 
L 186.034224 142.183363 
L 186.431168 114.327411 
L 186.828112 128.255387 
L 187.225056 128.255387 
L 187.622 114.327411 
L 188.018944 124.773393 
L 188.415888 117.809405 
L 188.812832 114.327411 
L 189.209776 121.291399 
L 190.003664 114.327411 
L 193.179216 114.327411 
L 193.57616 117.809405 
L 193.973104 114.327411 
L 194.370048 114.327411 
L 194.766992 117.809405 
L 195.163936 114.327411 
L 195.56088 117.809405 
L 195.957824 114.327411 
L 196.354768 117.809405 
L 196.751712 117.809405 
L 197.148656 114.327411 
L 197.5456 121.291399 
L 198.339488 114.327411 
L 198.736432 121.291399 
L 199.133376 114.327411 
L 199.53032 117.809405 
L 199.927264 114.327411 
L 205.087536 114.327411 
L 205.48448 117.809405 
L 205.881424 114.327411 
L 206.278368 114.327411 
L 206.675312 117.809405 
L 207.072256 114.327411 
L 207.4692 117.809405 
L 207.866144 114.327411 
L 208.660032 121.291399 
L 209.056976 121.291399 
L 209.45392 114.327411 
L 209.850864 117.809405 
L 210.247808 131.737381 
L 210.644752 124.773393 
L 211.041696 114.327411 
L 211.43864 128.255387 
L 211.835584 117.809405 
L 212.232528 114.327411 
L 212.629472 114.327411 
L 213.026416 121.291399 
L 213.42336 114.327411 
L 213.820304 114.327411 
L 214.217248 117.809405 
L 214.614192 114.327411 
L 215.805024 114.327411 
L 216.201968 117.809405 
L 216.598912 114.327411 
L 218.583632 114.327411 
L 218.980576 117.809405 
L 219.37752 114.327411 
L 219.774464 117.809405 
L 220.171408 114.327411 
L 220.568352 114.327411 
L 221.36224 121.291399 
L 221.759184 114.327411 
L 222.156128 114.327411 
L 222.553072 117.809405 
L 222.950016 117.809405 
L 223.34696 114.327411 
L 224.140848 121.291399 
L 224.537792 114.327411 
L 224.934736 117.809405 
L 225.33168 124.773393 
L 225.728624 124.773393 
L 226.125568 114.327411 
L 226.522512 121.291399 
L 226.919456 131.737381 
L 227.3164 114.327411 
L 227.713344 117.809405 
L 228.110288 131.737381 
L 228.507232 117.809405 
L 228.904176 114.327411 
L 229.30112 117.809405 
L 229.698064 114.327411 
L 235.652224 114.327411 
L 236.049168 117.809405 
L 236.446112 114.327411 
L 236.843056 114.327411 
L 237.24 117.809405 
L 237.636944 114.327411 
L 237.636944 114.327411 
" style="fill:none;stroke:#1f77b4;stroke-linecap:square;stroke-width:1.5;"/>
   </g>
   <g id="patch_8">
    <path d="M 38.768 149.98 
L 38.768 95.4 
" style="fill:none;stroke:#000000;stroke-linecap:square;stroke-linejoin:miter;"/>
   </g>
   <g id="patch_9">
    <path d="M 237.24 149.98 
L 237.24 95.4 
" style="fill:none;stroke:#000000;stroke-linecap:square;stroke-linejoin:miter;"/>
   </g>
   <g id="patch_10">
    <path d="M 38.768 149.98 
L 237.24 149.98 
" style="fill:none;stroke:#000000;stroke-linecap:square;stroke-linejoin:miter;"/>
   </g>
   <g id="patch_11">
    <path d="M 38.768 95.4 
L 237.24 95.4 
" style="fill:none;stroke:#000000;stroke-linecap:square;stroke-linejoin:miter;"/>
   </g>
  </g>
 </g>
 <defs>
  <clipPath id="p829b2ac032">
   <rect height="54.58" width="198.472" x="38.768" y="9"/>
  </clipPath>
  <clipPath id="p951ce00cd9">
   <rect height="54.58" width="198.472" x="38.768" y="95.4"/>
  </clipPath>
 </defs>
</svg>
